<svg viewBox="0 0 151.70407 35.4911" version="1.1" id="svg1" xmlns="http://www.w3.org/2000/svg">
<defs id="defs1" />
<g id="layer1" transform="translate(57.097284,183.3)">
<path style="font-weight:500;font-size:31.0444px;line-height:0.6;font-family:'Avenir Next';-inkscape-font-specification:'Avenir Next, Medium';fill:#ffffff;stroke:#ffffff;stroke-width:0.264583;stroke-opacity:1" d="m -53.607366,-148.5 h -3.290706 l 9.251231,-21.97943 h 3.011306 l 9.251231,21.97943 h -3.32175 l -7.450656,-18.0368 z m 24.183611,0 h -3.073396 v -21.97943 h 7.047079 q 1.583264,0 3.011306,0.34148 1.428043,0.31045 2.483552,1.02447 1.086554,0.71402 1.707442,1.89371 0.620888,1.14864 0.620888,2.82504 0,2.42146 -1.490131,3.91159 -1.490131,1.49013 -3.849505,1.89371 l 6.146791,10.08943 h -3.725328 l -5.587992,-9.77899 h -3.290706 z m 0,-12.35567 h 3.539061 q 1.086554,0 2.017886,-0.18627 0.931332,-0.18626 1.614309,-0.58984 0.714021,-0.43462 1.117598,-1.08655 0.403577,-0.68298 0.403577,-1.6764 0,-0.99342 -0.403577,-1.64536 -0.403577,-0.68297 -1.086554,-1.08655 -0.651932,-0.40358 -1.55222,-0.5588 -0.900287,-0.18627 -1.893708,-0.18627 h -3.756372 z m 34.8318261,8.94079 q -1.3038648,1.76953 -3.3838396,2.88713 -2.07997471,1.08655 -4.9981482,1.08655 -2.5145964,0 -4.6566599,-0.8382 -2.1110192,-0.86924 -3.6632394,-2.39042 -1.521175,-1.55222 -2.390418,-3.66324 -0.869244,-2.14206 -0.869244,-4.6877 0,-2.57669 0.869244,-4.68771 0.900287,-2.14206 2.452507,-3.63219 1.5832644,-1.52118 3.725328,-2.35938 2.1420635,-0.83819 4.6566599,-0.83819 1.1175983,0 2.2662411,0.21731 1.14864277,0.21731 2.2041523,0.65193 1.0555096,0.43462 1.9247528,1.08655 0.8692432,0.62089 1.4901312,1.45909 l -2.4214632,1.86266 q -0.8071544,-1.11759 -2.29728552,-1.83162 -1.45908678,-0.74506 -3.16652868,-0.74506 -1.9247528,0 -3.4769728,0.71402 -1.5211755,0.68298 -2.6077295,1.89371 -1.0865536,1.21073 -1.6763976,2.82504 -0.589844,1.58326 -0.589844,3.38384 0,1.86266 0.5588,3.47697 0.589843,1.61431 1.6453528,2.82504 1.086554,1.17969 2.6077295,1.86267 1.55222,0.68297 3.4459284,0.68297 1.8626639,0 3.38383947,-0.74506 1.52117553,-0.74507 2.51459633,-2.17311 z m 3.1354922,-18.56455 h 3.0733957 v 9.18914 h 11.113895 v -9.18914 h 3.10444 V -148.5 h -3.10444 v -10.05839 H 11.616959 V -148.5 H 8.5435633 Z m 36.5703057,0 v 2.66981 H 29.902113 v -2.66981 z m -0.962376,9.34436 v 2.54564 H 30.771357 v -2.54564 z m 1.241776,9.96525 V -148.5 H 29.902113 v -2.66982 z m 26.263566,-8.35094 q 0,2.54564 -0.900287,4.6877 -0.869244,2.11102 -2.421464,3.66324 -1.55222,1.52118 -3.694283,2.39042 -2.142064,0.8382 -4.65666,0.8382 -2.514596,0 -4.65666,-0.8382 -2.111019,-0.86924 -3.663239,-2.39042 -1.55222,-1.55222 -2.421463,-3.66324 -0.869243,-2.14206 -0.869243,-4.6877 0,-2.57669 0.869243,-4.68771 0.869243,-2.14206 2.421463,-3.63219 1.55222,-1.52118 3.663239,-2.35938 2.142064,-0.83819 4.65666,-0.83819 2.514596,0 4.65666,0.83819 2.142063,0.8382 3.694283,2.35938 1.55222,1.49013 2.421464,3.63219 0.900287,2.11102 0.900287,4.68771 z m -3.321751,0 q 0,-1.80058 -0.589843,-3.38384 -0.589844,-1.61431 -1.676398,-2.82504 -1.086554,-1.21073 -2.638774,-1.89371 -1.521175,-0.71402 -3.445928,-0.71402 -1.893708,0 -3.445928,0.71402 -1.521176,0.68298 -2.60773,1.89371 -1.055509,1.21073 -1.645353,2.82504 -0.589844,1.58326 -0.589844,3.38384 0,1.83162 0.589844,3.44593 0.589844,1.61431 1.676398,2.82504 1.086554,1.17968 2.607729,1.86266 1.521176,0.68298 3.414884,0.68298 1.893708,0 3.445928,-0.68298 1.55222,-0.68298 2.638774,-1.86266 1.086554,-1.21073 1.676398,-2.82504 0.589843,-1.61431 0.589843,-3.44593 z m 23.003933,6.61246 h 0.06209 v -17.57113 h 3.073395 V -148.5 h -3.88055 l -11.610605,-17.94366 h -0.06209 V -148.5 h -3.073395 v -21.97943 h 4.004727 z" id="text2" aria-label="ΛRCHΞON" />
<path d="m 37.30528,-183.22446 q 0.363533,0 0.614544,0.25966 0.259666,0.25101 0.259666,0.60589 0,0.35488 -0.259666,0.61454 -0.251011,0.25102 -0.614544,0.25102 -0.354877,0 -0.614544,-0.25102 -0.25101,-0.25966 -0.25101,-0.61454 0,-0.35488 0.25101,-0.60589 0.259667,-0.25966 0.614544,-0.25966 z m 3.392974,7.61688 q 0.354877,0 0.605888,0.25966 0.259666,0.25101 0.259666,0.61455 0,0.35487 -0.259666,0.61454 -0.251011,0.25101 -0.605888,0.25101 -0.363533,0 -0.623199,-0.25101 -0.251011,-0.25967 -0.251011,-0.61454 0,-0.36354 0.251011,-0.61455 0.259666,-0.25966 0.623199,-0.25966 z m -6.759981,0 q 0.363533,0 0.614544,0.25966 0.259666,0.25101 0.259666,0.61455 0,0.35487 -0.259666,0.61454 -0.251011,0.25101 -0.614544,0.25101 -0.354877,0 -0.614544,-0.25101 -0.25101,-0.25967 -0.25101,-0.61454 0,-0.36354 0.25101,-0.61455 0.259667,-0.25966 0.614544,-0.25966 z" id="text4" style="font-weight:500;font-size:31.0444px;line-height:0.6;font-family:'Avenir Next';-inkscape-font-specification:'Avenir Next, Medium';fill:#ffffff;stroke:#ffffff;stroke-width:0.151079" aria-label="∴" />
</g>
</svg>
